<svg viewBox="0 0 480 380" xmlns="http://www.w3.org/2000/svg" role="img" aria-label="Illustration of a desktop computer system with a monitor showing a chart, a keyboard, a PC tower, and a wireless mouse, representing systems design and development">
  <defs>
    <linearGradient id="sdBezelGrad" x1="0" y1="0" x2="0" y2="1">
      <stop offset="0%" stop-color="#333e4b" />
      <stop offset="100%" stop-color="#232b36" />
    </linearGradient>
    <linearGradient id="sdTowerGrad" x1="0" y1="0" x2="1" y2="1">
      <stop offset="0%" stop-color="#3a4756" />
      <stop offset="100%" stop-color="#232b36" />
    </linearGradient>
    <linearGradient id="sdKeyGrad" x1="0" y1="0" x2="0" y2="1">
      <stop offset="0%" stop-color="#e9edf1" />
      <stop offset="100%" stop-color="#c7ccd1" />
    </linearGradient>
  </defs>

  <ellipse cx="240" cy="335" rx="200" ry="14" fill="#000000" opacity="0.07" />

  <!-- MONITOR (left, turned slightly for dimension; enlarged ~15% and brought closer to the keyboard) -->
  <g transform="translate(-20.7,4.5) scale(1.15)">
    <ellipse cx="145" cy="210" rx="32" ry="7" fill="url(#sdBezelGrad)" />
    <rect x="137" y="190" width="16" height="16" fill="url(#sdBezelGrad)" />
    <polygon points="230,70 236,66 236,186 230,190" fill="#1a2027" />
    <polygon points="45,70 230,70 236,66 51,66" fill="#4a5766" />
    <rect x="45" y="70" width="185" height="120" rx="8" fill="url(#sdBezelGrad)" />
    <rect x="54" y="79" width="167" height="102" rx="4" fill="#101820" />
    <rect x="84.1" y="130.2" width="18.4" height="42.8" rx="2" fill="#c9973d" />
    <rect x="110.8" y="142.4" width="18.4" height="30.6" rx="2" fill="#7fa3c9" />
    <rect x="137.5" y="116.9" width="18.4" height="56.1" rx="2" fill="#c9973d" />
    <rect x="164.2" y="150.6" width="18.4" height="22.4" rx="2" fill="#7fa3c9" />
    <line x1="58.0" y1="173.0" x2="217.0" y2="173.0" stroke="#3a4756" stroke-width="1.5" opacity="0.6" />
  </g>

  <!-- PC TOWER (right, corner view for dimension) -->
  <g>
    <polygon points="395,95 415,83 415,273 395,285" fill="#1a2027" />
    <polygon points="300,95 395,95 415,83 320,83" fill="#4a5766" />
    <rect x="300" y="95" width="95" height="190" rx="6" fill="url(#sdTowerGrad)" />
    <line x1="314" y1="107" x2="381" y2="107" stroke="#0f141a" stroke-width="2" opacity="0.6" />
    <line x1="314" y1="113" x2="381" y2="113" stroke="#0f141a" stroke-width="2" opacity="0.6" />
    <line x1="314" y1="119" x2="381" y2="119" stroke="#0f141a" stroke-width="2" opacity="0.6" />
    <line x1="314" y1="125" x2="381" y2="125" stroke="#0f141a" stroke-width="2" opacity="0.6" />
    <circle cx="347" cy="155" r="10" fill="#1a2027" stroke="#c9973d" stroke-width="2" />
    <circle cx="347" cy="155" r="4" fill="#c9973d" />
    <rect x="315" y="180" width="64" height="6" rx="3" fill="#1a2027" />
    <circle cx="378" cy="155" r="2.5" fill="#6fbf73" />
    <line x1="398.0" y1="108.4" x2="412.0" y2="100.0" stroke="#0f141a" stroke-width="1.8" opacity="0.6" />
    <line x1="398.0" y1="119.8" x2="412.0" y2="111.4" stroke="#0f141a" stroke-width="1.8" opacity="0.6" />
    <line x1="398.0" y1="131.2" x2="412.0" y2="122.8" stroke="#0f141a" stroke-width="1.8" opacity="0.6" />
  </g>

  <!-- KEYBOARD (front, foreshortened to read as lying flat on the desk) -->
  <g transform="translate(34,53) scale(0.8)">
    <polygon points="85,268 272,262 305,332 48,340" fill="url(#sdKeyGrad)" stroke="#aab2bb" stroke-width="1.5" />
    <polygon points="84.5,272.3 98.4,271.8 91.5,287.6 76.5,288.1" fill="#f8f9fa" stroke="#c7ccd1" stroke-width="0.7" />
    <polygon points="101.9,271.7 115.8,271.3 110.3,287.0 95.3,287.5" fill="#f8f9fa" stroke="#c7ccd1" stroke-width="0.7" />
    <polygon points="119.3,271.2 133.2,270.7 129.1,286.4 114.1,286.9" fill="#f8f9fa" stroke="#c7ccd1" stroke-width="0.7" />
    <polygon points="136.7,270.6 150.6,270.2 147.9,285.8 132.9,286.3" fill="#f8f9fa" stroke="#c7ccd1" stroke-width="0.7" />
    <polygon points="154.0,270.0 168.0,269.6 166.7,285.2 151.6,285.7" fill="#f8f9fa" stroke="#c7ccd1" stroke-width="0.7" />
    <polygon points="171.4,269.5 185.3,269.0 185.5,284.6 170.4,285.1" fill="#f8f9fa" stroke="#c7ccd1" stroke-width="0.7" />
    <polygon points="188.8,268.9 202.7,268.5 204.2,284.0 189.2,284.5" fill="#f8f9fa" stroke="#c7ccd1" stroke-width="0.7" />
    <polygon points="206.2,268.4 220.1,267.9 223.0,283.4 208.0,283.9" fill="#f8f9fa" stroke="#c7ccd1" stroke-width="0.7" />
    <polygon points="223.6,267.8 237.5,267.4 241.8,282.9 226.8,283.3" fill="#f8f9fa" stroke="#c7ccd1" stroke-width="0.7" />
    <polygon points="241.0,267.3 254.9,266.8 260.6,282.3 245.6,282.7" fill="#f8f9fa" stroke="#c7ccd1" stroke-width="0.7" />
    <polygon points="258.3,266.7 272.2,266.3 279.4,281.7 264.3,282.1" fill="#f8f9fa" stroke="#c7ccd1" stroke-width="0.7" />
    <polygon points="75.1,291.0 90.3,290.5 83.4,306.3 67.1,306.8" fill="#f8f9fa" stroke="#c7ccd1" stroke-width="0.7" />
    <polygon points="94.1,290.4 109.3,289.9 103.8,305.7 87.5,306.2" fill="#f8f9fa" stroke="#c7ccd1" stroke-width="0.7" />
    <polygon points="113.1,289.8 128.4,289.3 124.3,305.0 107.9,305.5" fill="#f8f9fa" stroke="#c7ccd1" stroke-width="0.7" />
    <polygon points="132.2,289.2 147.4,288.7 144.7,304.4 128.4,304.9" fill="#f8f9fa" stroke="#c7ccd1" stroke-width="0.7" />
    <polygon points="151.2,288.6 166.4,288.1 165.2,303.7 148.8,304.2" fill="#f8f9fa" stroke="#c7ccd1" stroke-width="0.7" />
    <polygon points="170.2,288.0 185.5,287.5 185.6,303.1 169.2,303.6" fill="#f8f9fa" stroke="#c7ccd1" stroke-width="0.7" />
    <polygon points="189.3,287.4 204.5,286.9 206.0,302.4 189.7,303.0" fill="#f8f9fa" stroke="#c7ccd1" stroke-width="0.7" />
    <polygon points="208.3,286.8 223.5,286.3 226.5,301.8 210.1,302.3" fill="#f8f9fa" stroke="#c7ccd1" stroke-width="0.7" />
    <polygon points="227.4,286.2 242.6,285.7 246.9,301.2 230.6,301.7" fill="#f8f9fa" stroke="#c7ccd1" stroke-width="0.7" />
    <polygon points="246.4,285.5 261.6,285.1 267.3,300.5 251.0,301.0" fill="#f8f9fa" stroke="#c7ccd1" stroke-width="0.7" />
    <polygon points="265.4,284.9 280.7,284.5 287.8,299.9 271.4,300.4" fill="#f8f9fa" stroke="#c7ccd1" stroke-width="0.7" />
    <polygon points="65.6,309.7 82.2,309.2 75.3,325.0 57.6,325.5" fill="#f8f9fa" stroke="#c7ccd1" stroke-width="0.7" />
    <polygon points="86.3,309.0 102.9,308.5 97.4,324.3 79.7,324.8" fill="#f8f9fa" stroke="#c7ccd1" stroke-width="0.7" />
    <polygon points="107.0,308.4 123.5,307.9 119.5,323.6 101.8,324.1" fill="#f8f9fa" stroke="#c7ccd1" stroke-width="0.7" />
    <polygon points="127.7,307.7 144.2,307.2 141.6,322.9 123.9,323.5" fill="#f8f9fa" stroke="#c7ccd1" stroke-width="0.7" />
    <polygon points="148.4,307.1 164.9,306.6 163.6,322.2 146.0,322.8" fill="#f8f9fa" stroke="#c7ccd1" stroke-width="0.7" />
    <polygon points="169.1,306.4 185.6,305.9 185.7,321.5 168.1,322.1" fill="#f8f9fa" stroke="#c7ccd1" stroke-width="0.7" />
    <polygon points="189.8,305.8 206.3,305.3 207.8,320.8 190.2,321.4" fill="#f8f9fa" stroke="#c7ccd1" stroke-width="0.7" />
    <polygon points="210.4,305.1 227.0,304.6 229.9,320.1 212.2,320.7" fill="#f8f9fa" stroke="#c7ccd1" stroke-width="0.7" />
    <polygon points="231.1,304.5 247.7,304.0 252.0,319.5 234.3,320.0" fill="#f8f9fa" stroke="#c7ccd1" stroke-width="0.7" />
    <polygon points="251.8,303.8 268.4,303.3 274.1,318.8 256.4,319.3" fill="#f8f9fa" stroke="#c7ccd1" stroke-width="0.7" />
    <polygon points="272.5,303.2 289.1,302.7 296.2,318.1 278.5,318.6" fill="#f8f9fa" stroke="#c7ccd1" stroke-width="0.7" />
    <polygon points="127.5,326.9 238.4,323.4 240.0,330.5 125.9,334.0" fill="#f8f9fa" stroke="#c7ccd1" stroke-width="0.7" />
  </g>

  <!-- WIRELESS MOUSE (in front of the tower, tilted to match the keyboard's perspective) -->
  <g transform="rotate(18 306 314)">
    <ellipse cx="306" cy="314" rx="14" ry="19" fill="url(#sdKeyGrad)" stroke="#aab2bb" stroke-width="1.5" />
    <line x1="306" y1="295" x2="306" y2="307" stroke="#aab2bb" stroke-width="1.2" />
    <rect x="303" y="298" width="6" height="7" rx="3" fill="#aab2bb" />
  </g>
</svg>
